<mxfile host="65bd71144e">
    <diagram id="ap3Ln4ALbUO5xXeBseo1" name="Page-1">
        <mxGraphModel dx="866" dy="487" grid="1" gridSize="10" guides="1" tooltips="1" connect="1" arrows="1" fold="1" page="1" pageScale="1" pageWidth="1169" pageHeight="827" math="0" shadow="0">
            <root>
                <mxCell id="0"/>
                <mxCell id="1" parent="0"/>
                <mxCell id="20" value="Fornecedor" style="swimlane;fontStyle=0;childLayout=stackLayout;horizontal=1;startSize=26;fillColor=none;horizontalStack=0;resizeParent=1;resizeParentMax=0;resizeLast=0;collapsible=1;marginBottom=0;sketch=1;curveFitting=1;jiggle=2;" vertex="1" parent="1">
                    <mxGeometry x="910" y="356" width="140" height="338" as="geometry"/>
                </mxCell>
                <mxCell id="21" value="_id: ObjectId" style="text;strokeColor=none;fillColor=none;align=left;verticalAlign=top;spacingLeft=4;spacingRight=4;overflow=hidden;rotatable=0;points=[[0,0.5],[1,0.5]];portConstraint=eastwest;" vertex="1" parent="20">
                    <mxGeometry y="26" width="140" height="26" as="geometry"/>
                </mxCell>
                <mxCell id="22" value="razao_social: String" style="text;strokeColor=none;fillColor=none;align=left;verticalAlign=top;spacingLeft=4;spacingRight=4;overflow=hidden;rotatable=0;points=[[0,0.5],[1,0.5]];portConstraint=eastwest;" vertex="1" parent="20">
                    <mxGeometry y="52" width="140" height="26" as="geometry"/>
                </mxCell>
                <mxCell id="69" value="nome_fantasia: String" style="text;strokeColor=none;fillColor=none;align=left;verticalAlign=top;spacingLeft=4;spacingRight=4;overflow=hidden;rotatable=0;points=[[0,0.5],[1,0.5]];portConstraint=eastwest;" vertex="1" parent="20">
                    <mxGeometry y="78" width="140" height="26" as="geometry"/>
                </mxCell>
                <mxCell id="70" value="cnpj: String (unique)" style="text;strokeColor=none;fillColor=none;align=left;verticalAlign=top;spacingLeft=4;spacingRight=4;overflow=hidden;rotatable=0;points=[[0,0.5],[1,0.5]];portConstraint=eastwest;" vertex="1" parent="20">
                    <mxGeometry y="104" width="140" height="26" as="geometry"/>
                </mxCell>
                <mxCell id="23" value="logradouro: String" style="text;strokeColor=none;fillColor=none;align=left;verticalAlign=top;spacingLeft=4;spacingRight=4;overflow=hidden;rotatable=0;points=[[0,0.5],[1,0.5]];portConstraint=eastwest;" vertex="1" parent="20">
                    <mxGeometry y="130" width="140" height="26" as="geometry"/>
                </mxCell>
                <mxCell id="71" value="num_casa: String" style="text;strokeColor=none;fillColor=none;align=left;verticalAlign=top;spacingLeft=4;spacingRight=4;overflow=hidden;rotatable=0;points=[[0,0.5],[1,0.5]];portConstraint=eastwest;" vertex="1" parent="20">
                    <mxGeometry y="156" width="140" height="26" as="geometry"/>
                </mxCell>
                <mxCell id="72" value="bairro: String" style="text;strokeColor=none;fillColor=none;align=left;verticalAlign=top;spacingLeft=4;spacingRight=4;overflow=hidden;rotatable=0;points=[[0,0.5],[1,0.5]];portConstraint=eastwest;" vertex="1" parent="20">
                    <mxGeometry y="182" width="140" height="26" as="geometry"/>
                </mxCell>
                <mxCell id="73" value="complemento: String" style="text;strokeColor=none;fillColor=none;align=left;verticalAlign=top;spacingLeft=4;spacingRight=4;overflow=hidden;rotatable=0;points=[[0,0.5],[1,0.5]];portConstraint=eastwest;" vertex="1" parent="20">
                    <mxGeometry y="208" width="140" height="26" as="geometry"/>
                </mxCell>
                <mxCell id="74" value="municipio: String" style="text;strokeColor=none;fillColor=none;align=left;verticalAlign=top;spacingLeft=4;spacingRight=4;overflow=hidden;rotatable=0;points=[[0,0.5],[1,0.5]];portConstraint=eastwest;" vertex="1" parent="20">
                    <mxGeometry y="234" width="140" height="26" as="geometry"/>
                </mxCell>
                <mxCell id="75" value="uf: String" style="text;strokeColor=none;fillColor=none;align=left;verticalAlign=top;spacingLeft=4;spacingRight=4;overflow=hidden;rotatable=0;points=[[0,0.5],[1,0.5]];portConstraint=eastwest;" vertex="1" parent="20">
                    <mxGeometry y="260" width="140" height="26" as="geometry"/>
                </mxCell>
                <mxCell id="76" value="telefone: String" style="text;strokeColor=none;fillColor=none;align=left;verticalAlign=top;spacingLeft=4;spacingRight=4;overflow=hidden;rotatable=0;points=[[0,0.5],[1,0.5]];portConstraint=eastwest;" vertex="1" parent="20">
                    <mxGeometry y="286" width="140" height="26" as="geometry"/>
                </mxCell>
                <mxCell id="77" value="email: String (unique)" style="text;strokeColor=none;fillColor=none;align=left;verticalAlign=top;spacingLeft=4;spacingRight=4;overflow=hidden;rotatable=0;points=[[0,0.5],[1,0.5]];portConstraint=eastwest;" vertex="1" parent="20">
                    <mxGeometry y="312" width="140" height="26" as="geometry"/>
                </mxCell>
                <mxCell id="27" value="Produto" style="swimlane;fontStyle=0;childLayout=stackLayout;horizontal=1;startSize=26;fillColor=none;horizontalStack=0;resizeParent=1;resizeParentMax=0;resizeLast=0;collapsible=1;marginBottom=0;sketch=1;curveFitting=1;jiggle=2;" vertex="1" parent="1">
                    <mxGeometry x="640" y="440" width="160" height="182" as="geometry"/>
                </mxCell>
                <mxCell id="28" value="_id: ObjectId" style="text;strokeColor=none;fillColor=none;align=left;verticalAlign=top;spacingLeft=4;spacingRight=4;overflow=hidden;rotatable=0;points=[[0,0.5],[1,0.5]];portConstraint=eastwest;" vertex="1" parent="27">
                    <mxGeometry y="26" width="160" height="26" as="geometry"/>
                </mxCell>
                <mxCell id="29" value="descricao: String" style="text;strokeColor=none;fillColor=none;align=left;verticalAlign=top;spacingLeft=4;spacingRight=4;overflow=hidden;rotatable=0;points=[[0,0.5],[1,0.5]];portConstraint=eastwest;" vertex="1" parent="27">
                    <mxGeometry y="52" width="160" height="26" as="geometry"/>
                </mxCell>
                <mxCell id="30" value="unidade_medida: String" style="text;strokeColor=none;fillColor=none;align=left;verticalAlign=top;spacingLeft=4;spacingRight=4;overflow=hidden;rotatable=0;points=[[0,0.5],[1,0.5]];portConstraint=eastwest;" vertex="1" parent="27">
                    <mxGeometry y="78" width="160" height="26" as="geometry"/>
                </mxCell>
                <mxCell id="57" value="qtd: Double" style="text;strokeColor=none;fillColor=none;align=left;verticalAlign=top;spacingLeft=4;spacingRight=4;overflow=hidden;rotatable=0;points=[[0,0.5],[1,0.5]];portConstraint=eastwest;" vertex="1" parent="27">
                    <mxGeometry y="104" width="160" height="26" as="geometry"/>
                </mxCell>
                <mxCell id="60" value="valor_unitario: Double" style="text;strokeColor=none;fillColor=none;align=left;verticalAlign=top;spacingLeft=4;spacingRight=4;overflow=hidden;rotatable=0;points=[[0,0.5],[1,0.5]];portConstraint=eastwest;" vertex="1" parent="27">
                    <mxGeometry y="130" width="160" height="26" as="geometry"/>
                </mxCell>
                <mxCell id="112" value="fornecedores: [Fornecedor]" style="text;strokeColor=none;fillColor=none;align=left;verticalAlign=top;spacingLeft=4;spacingRight=4;overflow=hidden;rotatable=0;points=[[0,0.5],[1,0.5]];portConstraint=eastwest;" vertex="1" parent="27">
                    <mxGeometry y="156" width="160" height="26" as="geometry"/>
                </mxCell>
                <mxCell id="32" value="Venda" style="swimlane;fontStyle=0;childLayout=stackLayout;horizontal=1;startSize=26;fillColor=none;horizontalStack=0;resizeParent=1;resizeParentMax=0;resizeLast=0;collapsible=1;marginBottom=0;sketch=1;curveFitting=1;jiggle=2;" vertex="1" parent="1">
                    <mxGeometry x="360" y="110" width="150" height="130" as="geometry"/>
                </mxCell>
                <mxCell id="33" value="_id: ObjectId" style="text;strokeColor=none;fillColor=none;align=left;verticalAlign=top;spacingLeft=4;spacingRight=4;overflow=hidden;rotatable=0;points=[[0,0.5],[1,0.5]];portConstraint=eastwest;" vertex="1" parent="32">
                    <mxGeometry y="26" width="150" height="26" as="geometry"/>
                </mxCell>
                <mxCell id="34" value="num_venda: Int" style="text;strokeColor=none;fillColor=none;align=left;verticalAlign=top;spacingLeft=4;spacingRight=4;overflow=hidden;rotatable=0;points=[[0,0.5],[1,0.5]];portConstraint=eastwest;" vertex="1" parent="32">
                    <mxGeometry y="52" width="150" height="26" as="geometry"/>
                </mxCell>
                <mxCell id="78" value="data_venda: Datetime" style="text;strokeColor=none;fillColor=none;align=left;verticalAlign=top;spacingLeft=4;spacingRight=4;overflow=hidden;rotatable=0;points=[[0,0.5],[1,0.5]];portConstraint=eastwest;" vertex="1" parent="32">
                    <mxGeometry y="78" width="150" height="26" as="geometry"/>
                </mxCell>
                <mxCell id="35" value="cliente: Cliente" style="text;strokeColor=none;fillColor=none;align=left;verticalAlign=top;spacingLeft=4;spacingRight=4;overflow=hidden;rotatable=0;points=[[0,0.5],[1,0.5]];portConstraint=eastwest;" vertex="1" parent="32">
                    <mxGeometry y="104" width="150" height="26" as="geometry"/>
                </mxCell>
                <mxCell id="38" value="Cliente" style="swimlane;fontStyle=0;childLayout=stackLayout;horizontal=1;startSize=26;fillColor=none;horizontalStack=0;resizeParent=1;resizeParentMax=0;resizeLast=0;collapsible=1;marginBottom=0;glass=0;sketch=1;curveFitting=1;jiggle=2;" vertex="1" parent="1">
                    <mxGeometry x="41" y="31" width="200" height="312" as="geometry"/>
                </mxCell>
                <mxCell id="39" value="_id: ObjectId" style="text;strokeColor=none;fillColor=none;align=left;verticalAlign=top;spacingLeft=4;spacingRight=4;overflow=hidden;rotatable=0;points=[[0,0.5],[1,0.5]];portConstraint=eastwest;" vertex="1" parent="38">
                    <mxGeometry y="26" width="200" height="26" as="geometry"/>
                </mxCell>
                <mxCell id="40" value="name: String" style="text;strokeColor=none;fillColor=none;align=left;verticalAlign=top;spacingLeft=4;spacingRight=4;overflow=hidden;rotatable=0;points=[[0,0.5],[1,0.5]];portConstraint=eastwest;" vertex="1" parent="38">
                    <mxGeometry y="52" width="200" height="26" as="geometry"/>
                </mxCell>
                <mxCell id="46" value="num_casa: String" style="text;strokeColor=none;fillColor=none;align=left;verticalAlign=top;spacingLeft=4;spacingRight=4;overflow=hidden;rotatable=0;points=[[0,0.5],[1,0.5]];portConstraint=eastwest;" vertex="1" parent="38">
                    <mxGeometry y="78" width="200" height="26" as="geometry"/>
                </mxCell>
                <mxCell id="49" value="bairro: String" style="text;strokeColor=none;fillColor=none;align=left;verticalAlign=top;spacingLeft=4;spacingRight=4;overflow=hidden;rotatable=0;points=[[0,0.5],[1,0.5]];portConstraint=eastwest;" vertex="1" parent="38">
                    <mxGeometry y="104" width="200" height="26" as="geometry"/>
                </mxCell>
                <mxCell id="48" value="complemento: String?" style="text;strokeColor=none;fillColor=none;align=left;verticalAlign=top;spacingLeft=4;spacingRight=4;overflow=hidden;rotatable=0;points=[[0,0.5],[1,0.5]];portConstraint=eastwest;" vertex="1" parent="38">
                    <mxGeometry y="130" width="200" height="26" as="geometry"/>
                </mxCell>
                <mxCell id="53" value="logradouro:String" style="text;strokeColor=none;fillColor=none;align=left;verticalAlign=top;spacingLeft=4;spacingRight=4;overflow=hidden;rotatable=0;points=[[0,0.5],[1,0.5]];portConstraint=eastwest;" vertex="1" parent="38">
                    <mxGeometry y="156" width="200" height="26" as="geometry"/>
                </mxCell>
                <mxCell id="44" value="email:String (unique)" style="text;strokeColor=none;fillColor=none;align=left;verticalAlign=top;spacingLeft=4;spacingRight=4;overflow=hidden;rotatable=0;points=[[0,0.5],[1,0.5]];portConstraint=eastwest;" vertex="1" parent="38">
                    <mxGeometry y="182" width="200" height="26" as="geometry"/>
                </mxCell>
                <mxCell id="54" value="cpf: String (unique)" style="text;strokeColor=none;fillColor=none;align=left;verticalAlign=top;spacingLeft=4;spacingRight=4;overflow=hidden;rotatable=0;points=[[0,0.5],[1,0.5]];portConstraint=eastwest;" vertex="1" parent="38">
                    <mxGeometry y="208" width="200" height="26" as="geometry"/>
                </mxCell>
                <mxCell id="41" value="data_nascimento: Datetime?" style="text;strokeColor=none;fillColor=none;align=left;verticalAlign=top;spacingLeft=4;spacingRight=4;overflow=hidden;rotatable=0;points=[[0,0.5],[1,0.5]];portConstraint=eastwest;" vertex="1" parent="38">
                    <mxGeometry y="234" width="200" height="26" as="geometry"/>
                </mxCell>
                <mxCell id="55" value="municipio: String" style="text;strokeColor=none;fillColor=none;align=left;verticalAlign=top;spacingLeft=4;spacingRight=4;overflow=hidden;rotatable=0;points=[[0,0.5],[1,0.5]];portConstraint=eastwest;" vertex="1" parent="38">
                    <mxGeometry y="260" width="200" height="26" as="geometry"/>
                </mxCell>
                <mxCell id="56" value="uf: String" style="text;strokeColor=none;fillColor=none;align=left;verticalAlign=top;spacingLeft=4;spacingRight=4;overflow=hidden;rotatable=0;points=[[0,0.5],[1,0.5]];portConstraint=eastwest;" vertex="1" parent="38">
                    <mxGeometry y="286" width="200" height="26" as="geometry"/>
                </mxCell>
                <mxCell id="79" value="ItemVenda" style="swimlane;fontStyle=0;childLayout=stackLayout;horizontal=1;startSize=26;fillColor=none;horizontalStack=0;resizeParent=1;resizeParentMax=0;resizeLast=0;collapsible=1;marginBottom=0;sketch=1;curveFitting=1;jiggle=2;" vertex="1" parent="1">
                    <mxGeometry x="370" y="460" width="140" height="130" as="geometry"/>
                </mxCell>
                <mxCell id="80" value="_id: ObjectId" style="text;strokeColor=none;fillColor=none;align=left;verticalAlign=top;spacingLeft=4;spacingRight=4;overflow=hidden;rotatable=0;points=[[0,0.5],[1,0.5]];portConstraint=eastwest;" vertex="1" parent="79">
                    <mxGeometry y="26" width="140" height="26" as="geometry"/>
                </mxCell>
                <mxCell id="81" value="num_item: Int" style="text;strokeColor=none;fillColor=none;align=left;verticalAlign=top;spacingLeft=4;spacingRight=4;overflow=hidden;rotatable=0;points=[[0,0.5],[1,0.5]];portConstraint=eastwest;" vertex="1" parent="79">
                    <mxGeometry y="52" width="140" height="26" as="geometry"/>
                </mxCell>
                <mxCell id="82" value="produto: Produto" style="text;strokeColor=none;fillColor=none;align=left;verticalAlign=top;spacingLeft=4;spacingRight=4;overflow=hidden;rotatable=0;points=[[0,0.5],[1,0.5]];portConstraint=eastwest;" vertex="1" parent="79">
                    <mxGeometry y="78" width="140" height="26" as="geometry"/>
                </mxCell>
                <mxCell id="83" value="qty: Double" style="text;strokeColor=none;fillColor=none;align=left;verticalAlign=top;spacingLeft=4;spacingRight=4;overflow=hidden;rotatable=0;points=[[0,0.5],[1,0.5]];portConstraint=eastwest;" vertex="1" parent="79">
                    <mxGeometry y="104" width="140" height="26" as="geometry"/>
                </mxCell>
                <mxCell id="85" value="" style="endArrow=diamondThin;endFill=0;endSize=24;html=1;entryX=0;entryY=0.5;entryDx=0;entryDy=0;exitX=1;exitY=0.5;exitDx=0;exitDy=0;" edge="1" parent="1" source="48" target="34">
                    <mxGeometry width="160" relative="1" as="geometry">
                        <mxPoint x="260" y="300" as="sourcePoint"/>
                        <mxPoint x="420" y="300" as="targetPoint"/>
                    </mxGeometry>
                </mxCell>
                <mxCell id="89" value="1" style="edgeLabel;html=1;align=center;verticalAlign=middle;resizable=0;points=[];" vertex="1" connectable="0" parent="85">
                    <mxGeometry x="-0.8865" y="2" relative="1" as="geometry">
                        <mxPoint x="13" y="-13" as="offset"/>
                    </mxGeometry>
                </mxCell>
                <mxCell id="90" value="0..*" style="edgeLabel;html=1;align=center;verticalAlign=middle;resizable=0;points=[];" vertex="1" connectable="0" parent="85">
                    <mxGeometry x="0.3733" y="1" relative="1" as="geometry">
                        <mxPoint y="-13" as="offset"/>
                    </mxGeometry>
                </mxCell>
                <mxCell id="91" value="" style="endArrow=diamondThin;endFill=1;endSize=24;html=1;entryX=0.5;entryY=0;entryDx=0;entryDy=0;" edge="1" parent="1" source="32" target="79">
                    <mxGeometry width="160" relative="1" as="geometry">
                        <mxPoint x="470" y="310" as="sourcePoint"/>
                        <mxPoint x="400" y="440" as="targetPoint"/>
                    </mxGeometry>
                </mxCell>
                <mxCell id="93" value="1" style="edgeLabel;html=1;align=center;verticalAlign=middle;resizable=0;points=[];" vertex="1" connectable="0" parent="91">
                    <mxGeometry x="-0.8035" y="1" relative="1" as="geometry">
                        <mxPoint x="6" y="-3" as="offset"/>
                    </mxGeometry>
                </mxCell>
                <mxCell id="94" value="0..*" style="edgeLabel;html=1;align=center;verticalAlign=middle;resizable=0;points=[];" vertex="1" connectable="0" parent="91">
                    <mxGeometry x="0.6187" relative="1" as="geometry">
                        <mxPoint x="11" y="4" as="offset"/>
                    </mxGeometry>
                </mxCell>
                <mxCell id="99" value="" style="endArrow=diamondThin;endFill=0;endSize=24;html=1;" edge="1" parent="1" source="27" target="79">
                    <mxGeometry width="160" relative="1" as="geometry">
                        <mxPoint x="500" y="399.9966210045661" as="sourcePoint"/>
                        <mxPoint x="619" y="400.53999999999996" as="targetPoint"/>
                    </mxGeometry>
                </mxCell>
                <mxCell id="100" value="1" style="edgeLabel;html=1;align=center;verticalAlign=middle;resizable=0;points=[];" vertex="1" connectable="0" parent="99">
                    <mxGeometry x="-0.8865" y="2" relative="1" as="geometry">
                        <mxPoint x="13" y="-13" as="offset"/>
                    </mxGeometry>
                </mxCell>
                <mxCell id="101" value="0..*" style="edgeLabel;html=1;align=center;verticalAlign=middle;resizable=0;points=[];" vertex="1" connectable="0" parent="99">
                    <mxGeometry x="0.3733" y="1" relative="1" as="geometry">
                        <mxPoint x="-13" y="-13" as="offset"/>
                    </mxGeometry>
                </mxCell>
                <mxCell id="102" value="1" style="edgeLabel;html=1;align=center;verticalAlign=middle;resizable=0;points=[];" vertex="1" connectable="0" parent="99">
                    <mxGeometry x="-0.8105" relative="1" as="geometry">
                        <mxPoint y="-12" as="offset"/>
                    </mxGeometry>
                </mxCell>
                <mxCell id="103" value="" style="endArrow=block;startArrow=block;endFill=1;startFill=1;html=1;" edge="1" parent="1" source="27" target="20">
                    <mxGeometry width="160" relative="1" as="geometry">
                        <mxPoint x="670" y="680" as="sourcePoint"/>
                        <mxPoint x="830" y="680" as="targetPoint"/>
                    </mxGeometry>
                </mxCell>
                <mxCell id="104" value="0..*" style="edgeLabel;html=1;align=center;verticalAlign=middle;resizable=0;points=[];" vertex="1" connectable="0" parent="103">
                    <mxGeometry x="-0.5901" y="1" relative="1" as="geometry">
                        <mxPoint y="-12" as="offset"/>
                    </mxGeometry>
                </mxCell>
                <mxCell id="105" value="0..*" style="edgeLabel;html=1;align=center;verticalAlign=middle;resizable=0;points=[];" vertex="1" connectable="0" parent="103">
                    <mxGeometry x="0.6407" y="2" relative="1" as="geometry">
                        <mxPoint x="-6" y="-11" as="offset"/>
                    </mxGeometry>
                </mxCell>
            </root>
        </mxGraphModel>
    </diagram>
</mxfile>